post img: http://lookpic.com/O/i2/990/vTprsVFk.jpeg

American Reunion 2012 New SourceTS XviD


[plot]

Thirteen years after graduating high school, Jim Levenstein (Jason Biggs), Chris "Oz" Ostreicher (Chris Klein), Kevin Myers (Thomas Ian Nicholas), Paul Finch (Eddie Kaye Thomas), and Steve Stifler (Seann William Scott) have moved on with adult life and responsibilities. Jim is married to Michelle (Alyson Hannigan) and they have a two-year-old son. Oz is an NFL sportscaster living in Los Angeles with his supermodel girlfriend Mia (Katrina Bowden). Kevin is married to Ellie and works from home as an architect. Finch has supposedly gone missing, and Stifler works as a temp at an investment firm.



Video Codec: XviD
Video Bitrate: 3 978 Kbps
Audio Codec: AC-3
Audio Bitrate: 192 Kbps
Resolution: 684 x 336
Runtime: 1h 44mn 26sec
Release Date: N/A
Theatre Date: 6 April 2012 (USA)
Language: English
Subtitles: yes
IMDB Rating: 7.6/10
IMDb URL: http://www.imdb.com/title/tt1605630/

General
Format: AVI
Format/Info: Audio Video Interleave
File size: 2.90 GiB
Duration: 1h 44mn
Overall bit rate: 3 978 Kbps

Video
Format: MPEG-4 Visual
Codec ID: XVID
Duration: 1h 44mn
Bit rate: 3 773 Kbps
Width: 684 pixels
Height: 336 pixels
Display aspect ratio: 2.036
Frame rate: 29.970 fps
Color space: YUV
Chroma subsampling: 4:2:0
Bit depth: 8 bits
Stream size: 2.75 GiB (95%)
Writing library: XviD 64


Audio
ID: 1
Format: AC-3
Format/Info: Audio Coding 3
Codec ID: 2000
Duration: 1h 44mn
Bit rate: 192 Kbps
Channel(s): 2 channels
Sampling rate: 48.0 KHz
Bit depth: 16 bits
Stream size: 143 MiB (5%)
Interleave, duration: 33 ms (1.00 video frame)
Interleave, preload duration: 500 ms


[cast]

Jason Biggs ... Jim Levenstein
Alyson Hannigan ... Michelle
Chris Klein ... Oz
Thomas Ian Nicholas ... Kevin
Tara Reid ... Vicky
Seann William Scott ... Steve Stifler
Mena Suvari ... Heather
Eddie Kaye Thomas ... Finch
John Cho ... MILF Guy
Jennifer Coolidge ... Stifler's Mom



plz comment, You will make me happy :)

Enjoy :) 	